<?xml version="1.0" standalone="no"?>
<!DOCTYPE svg PUBLIC "-//W3C//DTD SVG 20010904//EN"
 "http://www.w3.org/TR/2001/REC-SVG-20010904/DTD/svg10.dtd">
<svg version="1.0" xmlns="http://www.w3.org/2000/svg"
 width="512.000000pt" height="512.000000pt" viewBox="0 0 512.000000 512.000000"
 preserveAspectRatio="xMidYMid meet">

<g transform="translate(0.000000,512.000000) scale(0.100000,-0.100000)"
fill="#000000" stroke="none">
<path d="M1885 4980 l-141 -140 -176 0 c-113 0 -186 -4 -202 -12 -15 -6 -47
-44 -72 -86 l-47 -74 -64 70 c-104 116 -140 111 -263 -37 l-75 -90 -136 0
c-148 -1 -189 -10 -213 -46 -22 -33 -20 -68 9 -191 14 -58 25 -111 25 -117 0
-7 -28 -28 -61 -47 -34 -19 -67 -47 -75 -62 -10 -20 -14 -72 -14 -206 0 -167
1 -181 21 -206 12 -15 118 -105 237 -201 205 -166 219 -175 259 -175 49 0 49
0 232 203 58 65 110 116 116 115 5 -2 89 -44 185 -95 l175 -91 83 -249 82
-249 68 -60 c109 -98 142 -106 198 -50 54 54 48 83 -31 166 l-66 67 -80 244
c-50 150 -90 252 -103 266 -19 20 -171 103 -429 235 -136 70 -134 71 -307
-121 l-134 -150 -36 29 c-19 16 -88 71 -152 122 l-117 93 0 105 -1 105 61 35
c69 40 109 81 109 113 0 12 -9 56 -20 97 -33 126 -38 120 88 120 l107 0 73 77
72 78 73 -77 c71 -77 85 -84 142 -78 31 3 58 33 121 136 l59 94 168 0 c126 0
175 4 195 14 15 8 83 71 152 140 l125 126 111 0 112 0 71 -95 c97 -129 98
-130 248 -130 l123 0 6 -35 c4 -19 12 -64 19 -99 l13 -63 -91 -43 c-359 -168
-367 -172 -382 -209 -14 -33 -13 -41 15 -129 29 -90 30 -102 30 -273 0 -146 3
-184 15 -202 9 -12 110 -87 224 -167 114 -79 213 -150 218 -157 6 -7 34 -98
63 -203 29 -104 58 -197 64 -206 6 -8 100 -97 209 -197 l198 -182 159 0 c171
0 193 -7 148 -44 -74 -61 -61 -145 29 -184 26 -11 145 -57 263 -102 195 -74
230 -91 373 -182 163 -104 197 -134 197 -175 0 -27 -41 -73 -64 -73 -9 0 -43
15 -77 32 -118 62 -257 37 -342 -63 -65 -75 -82 -166 -51 -270 13 -44 29 -66
85 -121 67 -64 69 -68 69 -115 0 -47 -2 -50 -35 -62 -50 -18 -65 -53 -65 -151
l0 -81 -60 -80 c-60 -78 -62 -79 -98 -74 -20 3 -90 10 -156 15 -65 5 -120 11
-122 13 -2 2 46 84 106 182 64 104 110 189 110 204 0 14 -32 121 -72 236 l-72
210 -277 285 c-152 157 -308 315 -347 353 l-70 67 -114 0 -114 0 -53 45 c-55
47 -87 55 -135 34 -33 -15 -59 -71 -51 -109 7 -32 122 -145 163 -161 13 -5 69
-9 125 -9 l102 0 297 -304 298 -304 56 -162 56 -162 -78 -126 c-42 -70 -84
-139 -93 -154 -14 -23 -30 -29 -144 -54 l-128 -28 -177 35 c-168 32 -188 34
-394 34 l-218 0 -27 -28 -28 -27 0 -240 0 -240 25 -24 c19 -19 64 -35 200 -69
l175 -43 148 -107 c223 -162 178 -147 423 -147 252 0 237 -7 319 143 77 139
78 146 20 266 l-47 99 31 46 c37 53 23 51 225 35 118 -10 147 -9 169 2 14 8
71 74 126 148 l101 134 0 61 c1 61 1 61 39 79 21 9 43 29 49 43 7 15 12 79 12
162 0 119 -3 141 -20 169 -11 18 -23 33 -27 33 -5 0 -34 24 -65 54 -62 57 -73
90 -43 133 26 36 62 38 129 4 124 -63 232 -48 323 42 68 69 91 141 75 236 -18
105 -53 147 -217 255 -222 146 -230 150 -431 227 l-190 72 4 56 c5 79 -34 154
-102 196 -48 29 -53 30 -199 34 l-150 3 -157 144 -157 144 -53 192 c-29 106
-57 202 -62 214 -6 12 -107 89 -224 171 l-214 148 0 151 c0 107 -5 166 -16
203 -8 29 -14 54 -12 56 2 2 73 36 157 75 262 121 287 135 301 170 11 27 8 55
-24 227 -20 107 -43 208 -51 223 -24 45 -59 53 -205 45 l-129 -7 -70 95 c-108
145 -89 137 -314 137 l-190 0 -142 -140z m1104 -4290 l204 -40 155 35 c85 19
157 35 159 35 3 0 -21 -36 -52 -81 -77 -109 -77 -121 -17 -244 l49 -101 -23
-47 -24 -47 -140 0 -139 0 -165 119 -164 118 -109 27 c-59 15 -125 31 -145 37
l-38 10 0 109 0 110 123 0 c101 0 157 -7 326 -40z"/>
<path d="M2270 2739 c-61 -24 -84 -82 -56 -137 20 -38 44 -52 91 -52 74 0 121
88 79 149 -13 18 -73 53 -86 50 -2 0 -14 -5 -28 -10z"/>
<path d="M1374 2331 c-17 -10 -78 -53 -135 -95 -57 -42 -115 -79 -129 -82 -51
-10 -113 -49 -138 -87 -20 -30 -25 -49 -24 -90 1 -29 5 -218 9 -422 7 -333 10
-374 27 -408 44 -88 154 -142 242 -118 53 14 104 49 129 88 19 29 24 31 91 34
58 4 79 9 112 33 68 47 76 77 112 395 17 156 32 300 32 321 0 29 -23 82 -96
224 -54 103 -109 194 -123 206 -32 25 -69 25 -109 1z m102 -686 c-36 -320 -29
-295 -79 -295 -23 0 -59 -5 -80 -11 -36 -10 -100 -64 -123 -104 -28 -48 -33 3
-36 362 l-3 362 30 6 c17 3 70 35 120 70 l90 65 54 -107 54 -108 -27 -240z"/>
</g>
</svg>
