<?xml version="1.0" standalone="no"?>
<!DOCTYPE svg PUBLIC "-//W3C//DTD SVG 20010904//EN"
 "http://www.w3.org/TR/2001/REC-SVG-20010904/DTD/svg10.dtd">
<svg version="1.0" xmlns="http://www.w3.org/2000/svg"
 width="512.000000pt" height="512.000000pt" viewBox="0 0 512.000000 512.000000"
 preserveAspectRatio="xMidYMid meet">

<g transform="translate(0.000000,512.000000) scale(0.100000,-0.100000)"
fill="#000000" stroke="none">
<path d="M1375 5106 c-59 -26 -338 -338 -496 -556 -472 -649 -746 -1349 -851
-2170 -20 -156 -21 -219 -25 -1212 -4 -1043 -4 -1046 17 -1087 13 -27 34 -48
60 -61 39 -20 53 -20 2480 -20 2427 0 2441 0 2480 20 26 13 47 34 60 61 21 40
21 44 17 1082 -4 1111 -4 1109 -57 1435 -120 741 -434 1462 -894 2051 -168
216 -370 434 -423 457 -46 20 -2322 20 -2368 0z m2347 -394 c641 -710 1018
-1598 1088 -2557 5 -78 10 -517 10 -997 l0 -858 -395 0 c-311 0 -395 3 -395
13 0 7 58 334 130 727 71 393 130 718 130 721 0 4 22 9 49 11 64 6 105 37 127
94 l18 46 -88 355 c-95 382 -103 400 -173 429 -26 12 -197 14 -944 14 -1001 0
-954 3 -999 -60 -10 -15 -41 -114 -68 -221 l-48 -194 -550 -5 c-610 -6 -581
-2 -624 -73 -22 -36 -350 -1012 -350 -1042 0 -10 59 -195 130 -410 71 -215
130 -394 130 -398 0 -4 -135 -7 -300 -7 l-300 0 0 858 c0 1027 7 1160 85 1547
148 741 500 1438 1013 2007 l97 108 1065 0 1065 0 97 -108z m337 -2339 c30
-113 71 -283 71 -292 0 -8 -258 -11 -849 -11 l-849 0 39 158 c22 86 42 163 44
170 3 9 166 12 769 12 l765 0 10 -37z m-1969 -470 c0 -35 31 -87 66 -110 15
-9 48 -20 73 -23 l46 -5 42 -230 c23 -126 42 -240 43 -252 l0 -23 -673 0
c-371 0 -676 3 -679 6 -3 3 43 154 104 335 l110 329 434 0 434 0 0 -27z m1890
-153 c0 -18 -221 -1249 -251 -1397 l-10 -53 -437 0 -437 0 -128 708 c-71 389
-131 719 -134 735 l-5 27 701 0 c699 0 701 0 701 -20z m-1555 -812 c3 -13 27
-149 55 -303 28 -154 53 -292 56 -307 l6 -28 -660 0 -660 0 -110 330 -110 330
709 0 709 0 5 -22z"/>
<path d="M1825 4468 c-139 -26 -268 -128 -333 -265 -36 -77 -37 -80 -37 -198
0 -118 1 -121 37 -198 71 -148 206 -246 368 -267 98 -12 1302 -12 1400 0 162
21 292 116 366 265 39 79 39 79 39 199 0 119 -1 122 -37 199 -67 141 -194 239
-342 266 -75 14 -1389 13 -1461 -1z m1465 -315 c76 -47 105 -164 58 -233 -30
-44 -66 -69 -114 -80 -51 -12 -1297 -12 -1348 0 -81 18 -136 84 -136 163 0 80
46 145 119 168 14 4 332 7 706 6 l680 -2 35 -22z"/>
</g>
</svg>
