<?xml version="1.0" standalone="no"?>
<!DOCTYPE svg PUBLIC "-//W3C//DTD SVG 20010904//EN"
 "http://www.w3.org/TR/2001/REC-SVG-20010904/DTD/svg10.dtd">
<svg version="1.0" xmlns="http://www.w3.org/2000/svg"
 width="512.000000pt" height="512.000000pt" viewBox="0 0 512.000000 512.000000"
 preserveAspectRatio="xMidYMid meet">

<g transform="translate(0.000000,512.000000) scale(0.100000,-0.100000)"
fill="#000000" stroke="none">
<path d="M2323 5109 c-128 -11 -257 -34 -408 -73 -176 -46 -300 -92 -490 -185
-893 -438 -1453 -1368 -1422 -2361 13 -389 97 -726 268 -1069 250 -505 651
-904 1154 -1151 262 -129 479 -198 760 -242 190 -29 529 -32 720 -4 401 57
775 202 1110 430 201 137 274 237 283 386 9 160 -23 225 -197 403 l-135 137
56 58 c80 82 102 129 102 222 0 120 -9 132 -371 491 -295 293 -322 317 -372
332 -67 21 -113 21 -181 1 -49 -14 -70 -32 -200 -160 -81 -79 -151 -144 -156
-144 -16 0 -192 149 -310 262 -113 108 -321 340 -344 383 -13 24 -9 29 132
173 135 137 148 152 163 207 21 71 16 144 -15 206 -32 64 -618 652 -685 687
-41 21 -63 26 -125 26 -115 0 -141 -18 -376 -256 -218 -219 -249 -263 -279
-390 -20 -86 -19 -151 6 -264 181 -838 1134 -1856 2009 -2148 191 -64 308 -83
411 -68 97 14 186 52 258 111 l54 44 118 -120 c110 -111 119 -122 119 -158 0
-48 -34 -82 -180 -180 -537 -358 -1209 -465 -1840 -291 -468 129 -893 418
-1186 809 -230 306 -368 633 -431 1022 -24 153 -24 496 0 650 81 497 291 912
636 1255 350 348 760 556 1256 637 81 13 167 17 325 17 236 0 343 -12 554 -65
767 -192 1392 -804 1602 -1569 137 -498 101 -1033 -101 -1491 -31 -70 -36 -92
-32 -132 11 -116 124 -178 227 -125 38 20 50 34 82 98 152 305 238 744 225
1135 -14 380 -99 715 -268 1054 -353 710 -1008 1212 -1788 1371 -221 45 -504
60 -738 39z m-408 -1569 l250 -250 -152 -152 c-95 -97 -157 -167 -167 -192
-26 -62 -21 -145 12 -205 107 -200 683 -776 883 -883 60 -33 143 -38 205 -12
25 10 95 72 192 167 l152 152 253 -253 252 -253 -165 -163 c-192 -189 -210
-199 -327 -177 -292 54 -677 262 -1018 550 -490 414 -887 1002 -966 1434 -22
117 -12 136 175 325 88 89 162 162 165 162 4 0 119 -112 256 -250z"/>
</g>
</svg>
