<?xml version="1.0" standalone="no"?>
<!DOCTYPE svg PUBLIC "-//W3C//DTD SVG 20010904//EN"
 "http://www.w3.org/TR/2001/REC-SVG-20010904/DTD/svg10.dtd">
<svg version="1.0" xmlns="http://www.w3.org/2000/svg"
 width="512.000000pt" height="512.000000pt" viewBox="0 0 512.000000 512.000000"
 preserveAspectRatio="xMidYMid meet">

<g transform="translate(0.000000,512.000000) scale(0.100000,-0.100000)"
fill="#000000" stroke="none">
<path d="M1843 4811 c-23 -11 -48 -30 -57 -43 -8 -13 -49 -120 -90 -238 -390
-1126 -742 -2141 -1036 -2990 -194 -558 -357 -1029 -363 -1046 -29 -91 54
-203 152 -204 13 0 97 25 185 56 89 31 220 76 291 101 72 24 200 69 285 99 85
29 915 317 1845 639 1849 640 1742 599 1766 688 12 46 -2 291 -26 450 -77 511
-296 1005 -622 1402 -123 150 -393 412 -533 516 -482 362 -1021 555 -1625 583
-116 6 -135 4 -172 -13z m421 -331 c544 -80 1027 -319 1424 -704 321 -311 527
-624 668 -1014 77 -211 136 -489 146 -686 l2 -49 -149 -53 c-83 -29 -156 -53
-162 -53 -9 -1 -13 21 -13 78 0 263 -89 616 -225 896 -113 232 -269 440 -487
651 -308 297 -643 482 -1048 578 -131 32 -316 56 -421 56 -43 0 -79 3 -79 8 0
4 23 76 52 160 l52 152 51 0 c27 0 112 -9 189 -20z m-87 -635 c485 -69 899
-306 1241 -710 286 -339 442 -762 442 -1200 0 -74 -2 -135 -4 -135 -2 0 -674
-232 -1493 -516 -818 -284 -1525 -529 -1570 -544 l-81 -28 68 196 c37 109 71
204 75 213 5 13 14 15 48 8 66 -13 151 -10 234 7 228 47 401 202 479 429 24
69 28 96 28 195 0 99 -4 126 -28 195 -50 146 -132 254 -254 336 -42 28 -78 52
-80 54 -2 1 114 341 257 755 144 413 261 754 261 756 0 10 286 2 377 -11z
m-945 -1862 c66 -68 92 -130 92 -223 0 -60 -5 -86 -25 -130 -34 -71 -89 -126
-156 -157 -58 -27 -173 -43 -173 -25 0 7 164 488 195 570 7 20 18 14 67 -35z"/>
<path d="M1839 3187 c-19 -12 -44 -42 -57 -67 -22 -42 -23 -55 -20 -190 3
-114 7 -152 21 -177 40 -74 141 -105 214 -64 74 43 78 55 81 246 2 156 1 173
-18 203 -45 72 -151 96 -221 49z"/>
<path d="M2985 2850 c-111 -18 -196 -62 -271 -142 -96 -101 -134 -197 -134
-335 0 -191 101 -347 278 -431 75 -36 79 -37 197 -37 118 0 121 1 197 37 178
85 278 240 278 431 0 144 -45 251 -148 349 -32 30 -76 64 -97 75 -95 48 -208
68 -300 53z m150 -339 c100 -57 101 -211 3 -271 -44 -27 -122 -27 -166 0 -86
53 -99 186 -24 253 51 46 125 53 187 18z"/>
<path d="M2171 2019 c-92 -19 -145 -124 -111 -215 14 -37 204 -229 245 -249
123 -58 257 50 224 180 -9 34 -33 64 -127 158 -125 124 -157 142 -231 126z"/>
</g>
</svg>
